<?xml version="1.0" encoding="UTF-8" standalone="no"?>
<!DOCTYPE svg PUBLIC "-//W3C//DTD SVG 1.1//EN" "http://www.w3.org/Graphics/SVG/1.1/DTD/svg11.dtd">
<svg width="100%" height="100%" viewBox="0 0 1200 631" version="1.1" xmlns="http://www.w3.org/2000/svg" xmlns:xlink="http://www.w3.org/1999/xlink" xml:space="preserve" xmlns:serif="http://www.serif.com/" style="fill-rule:evenodd;clip-rule:evenodd;stroke-linejoin:round;stroke-miterlimit:2;">
    <g transform="matrix(1,0,0,1,0,-14)">
        <g id="ogimg" transform="matrix(0.901644,0,0,0.770058,2471.63,75.2576)">
            <rect x="-2741.25" y="-78.45" width="1330.9" height="818.121" style="fill:white;"/>
            <g transform="matrix(1,0,0,1,-19.9292,43.5295)">
                <g transform="matrix(0.594732,0,0,0.696358,-2516.67,125.646)">
                    <text x="290.188px" y="587.653px" style="font-family:'Montserrat-Regular', 'Montserrat';font-size:50px;fill:rgb(11,0,72);">Institut T<tspan x="510.638px " y="587.653px ">e</tspan>ologi Y<tspan x="706.588px " y="587.653px ">o</tspan>han<tspan x="835.238px " y="587.653px ">e</tspan>s Mar<tspan x="999.888px " y="587.653px ">i</tspan>a V<tspan x="1089.94px " y="587.653px ">i</tspan>ann<tspan x="1200.69px 1230.39px " y="587.653px 587.653px ">ey</tspan></text>
                    <text x="509.788px" y="649.815px" style="font-family:'Montserrat-Regular', 'Montserrat';font-size:50px;fill:rgb(11,0,72);">K<tspan x="544.138px " y="649.815px ">e</tspan>usk<tspan x="661.988px 695.638px 729.388px " y="649.815px 649.815px 649.815px ">upa</tspan>n Sur<tspan x="889.838px 919.338px 953.088px 982.088px 1008.39px " y="649.815px 649.815px 649.815px 649.815px 649.815px ">abaya</tspan></text>
                </g>
                <g transform="matrix(1.62492,0,0,1.90258,-2462.1,-36.6758)">
                    <g>
                        <g transform="matrix(1,0,0,1,11.5355,13.5135)">
                            <path d="M73.342,247.262C73.342,241.142 78.041,236.762 84.364,236.762C87.874,236.762 90.804,238.038 92.718,240.358L89.702,243.143C88.338,241.577 86.627,240.765 84.596,240.765C80.796,240.765 78.099,243.433 78.099,247.262C78.099,251.092 80.796,253.76 84.596,253.76C86.627,253.76 88.338,252.948 89.702,251.353L92.718,254.138C90.804,256.487 87.874,257.763 84.335,257.763C78.041,257.763 73.342,253.383 73.342,247.262Z" style="fill:rgb(19,154,73);fill-rule:nonzero;"/>
                        </g>
                        <g transform="matrix(1,0,0,1,11.5355,13.5135)">
                            <path d="M111.539,253.645L111.539,257.416L95.817,257.416L95.817,237.11L111.162,237.11L111.162,240.88L100.487,240.88L100.487,245.29L109.915,245.29L109.915,248.945L100.487,248.945L100.487,253.645L111.539,253.645Z" style="fill:rgb(19,154,73);fill-rule:nonzero;"/>
                        </g>
                        <g transform="matrix(1,0,0,1,11.5355,13.5135)">
                            <path d="M133.84,237.11L133.84,257.416L129.981,257.416L119.859,245.087L119.859,257.416L115.218,257.416L115.218,237.11L119.104,237.11L129.199,249.439L129.199,237.11L133.84,237.11Z" style="fill:rgb(19,154,73);fill-rule:nonzero;"/>
                        </g>
                        <g transform="matrix(1,0,0,1,11.5355,13.5135)">
                            <path d="M142.798,240.939L136.3,240.939L136.3,237.11L153.994,237.11L153.994,240.939L147.497,240.939L147.497,257.416L142.798,257.416L142.798,240.939Z" style="fill:rgb(19,154,73);fill-rule:nonzero;"/>
                        </g>
                        <g transform="matrix(1,0,0,1,11.5355,13.5135)">
                            <path d="M164.984,240.939L161.155,240.939L161.155,248.017L164.984,248.017C167.855,248.017 169.306,246.682 169.306,244.477C169.306,242.244 167.855,240.939 164.984,240.939ZM169.393,257.416L165.477,251.759L161.155,251.759L161.155,257.416L156.456,257.416L156.456,237.11L165.245,237.11C170.669,237.11 174.063,239.923 174.063,244.477C174.063,247.523 172.526,249.757 169.886,250.889L174.44,257.416L169.393,257.416Z" style="fill:rgb(19,154,73);fill-rule:nonzero;"/>
                        </g>
                        <g transform="matrix(1,0,0,1,11.5355,13.5135)">
                            <path d="M177.538,248.481L177.538,237.11L182.237,237.11L182.237,248.307C182.237,252.165 183.92,253.76 186.762,253.76C189.634,253.76 191.288,252.165 191.288,248.307L191.288,237.11L195.929,237.11L195.929,248.481C195.929,254.456 192.506,257.763 186.733,257.763C180.961,257.763 177.538,254.456 177.538,248.481Z" style="fill:rgb(19,154,73);fill-rule:nonzero;"/>
                        </g>
                        <g transform="matrix(1,0,0,1,11.5355,13.5135)">
                            <path d="M218.984,257.416L218.955,245.232L212.979,255.269L210.862,255.269L204.915,245.493L204.915,257.416L200.506,257.416L200.506,237.11L204.393,237.11L211.993,249.729L219.477,237.11L223.334,237.11L223.393,257.416L218.984,257.416Z" style="fill:rgb(19,154,73);fill-rule:nonzero;"/>
                        </g>
                        <g transform="matrix(1,0,0,1,11.5355,13.5135)">
                            <rect x="236.292" y="237.11" width="4.699" height="20.306" style="fill:rgb(19,154,73);fill-rule:nonzero;"/>
                        </g>
                        <g transform="matrix(1,0,0,1,11.5355,13.5135)">
                            <path d="M265.151,237.11L256.362,257.416L251.721,257.416L242.961,237.11L248.037,237.11L254.216,251.613L260.48,237.11L265.151,237.11Z" style="fill:rgb(19,154,73);fill-rule:nonzero;"/>
                        </g>
                        <g transform="matrix(1,0,0,1,11.5355,13.5135)">
                            <path d="M277.996,249.496L274.776,241.722L271.557,249.496L277.996,249.496ZM279.476,253.065L270.048,253.065L268.25,257.416L263.435,257.416L272.484,237.11L277.126,237.11L286.205,257.416L281.273,257.416L279.476,253.065Z" style="fill:rgb(19,154,73);fill-rule:nonzero;"/>
                        </g>
                        <g transform="matrix(1,0,0,1,11.5355,13.5135)">
                            <path d="M306.882,237.11L306.882,257.416L303.023,257.416L292.9,245.087L292.9,257.416L288.259,257.416L288.259,237.11L292.146,237.11L302.24,249.439L302.24,237.11L306.882,237.11Z" style="fill:rgb(19,154,73);fill-rule:nonzero;"/>
                        </g>
                        <g transform="matrix(1,0,0,1,11.5355,13.5135)">
                            <path d="M338.259,257.416L338.229,245.232L332.254,255.269L330.137,255.269L324.19,245.493L324.19,257.416L319.781,257.416L319.781,237.11L323.668,237.11L331.269,249.729L338.752,237.11L342.609,237.11L342.668,257.416L338.259,257.416Z" style="fill:rgb(19,154,73);fill-rule:nonzero;"/>
                        </g>
                        <g transform="matrix(1,0,0,1,11.5355,13.5135)">
                            <path d="M363.14,253.645L363.14,257.416L347.418,257.416L347.418,237.11L362.763,237.11L362.763,240.88L352.088,240.88L352.088,245.29L361.516,245.29L361.516,248.945L352.088,248.945L352.088,253.645L363.14,253.645Z" style="fill:rgb(19,154,73);fill-rule:nonzero;"/>
                        </g>
                        <g transform="matrix(1,0,0,1,11.5355,13.5135)">
                            <path d="M375.347,240.939L371.518,240.939L371.518,248.017L375.347,248.017C378.219,248.017 379.669,246.682 379.669,244.477C379.669,242.244 378.219,240.939 375.347,240.939ZM379.756,257.416L375.84,251.759L371.518,251.759L371.518,257.416L366.818,257.416L366.818,237.11L375.607,237.11C381.032,237.11 384.426,239.923 384.426,244.477C384.426,247.523 382.889,249.757 380.249,250.889L384.803,257.416L379.756,257.416Z" style="fill:rgb(19,154,73);fill-rule:nonzero;"/>
                        </g>
                        <g transform="matrix(1,0,0,1,11.5355,13.5135)">
                            <path d="M404.522,253.586L404.522,257.416L386.771,257.416L386.771,254.369L397.909,240.939L387.002,240.939L387.002,237.11L404.087,237.11L404.087,240.155L392.978,253.586L404.522,253.586Z" style="fill:rgb(19,154,73);fill-rule:nonzero;"/>
                        </g>
                    </g>
                    <g transform="matrix(1,0,0,1,0,5.52)">
                        <g transform="matrix(1,0,0,1,11.5355,13.5135)">
                            <path d="M239.415,175.425L239.558,175.349L239.415,175.349L239.415,175.425Z" style="fill:rgb(19,154,73);fill-rule:nonzero;"/>
                        </g>
                        <g transform="matrix(1,0,0,1,11.5355,13.5135)">
                            <path d="M239.269,175.349L239.415,175.425L239.415,175.349L239.269,175.349Z" style="fill:rgb(168,205,56);fill-rule:nonzero;"/>
                        </g>
                        <g transform="matrix(1,0,0,1,11.5355,13.5135)">
                            <path d="M170.692,187.268C170.692,190.017 168.464,192.245 165.714,192.245C162.965,192.245 160.737,190.017 160.737,187.268C160.737,184.518 162.965,182.29 165.714,182.29C168.464,182.29 170.692,184.518 170.692,187.268Z" style="fill:rgb(19,154,73);fill-rule:nonzero;"/>
                        </g>
                        <g transform="matrix(1,0,0,1,11.5355,13.5135)">
                            <path d="M185.692,192.245C185.692,194.994 183.464,197.223 180.714,197.223C177.965,197.223 175.737,194.994 175.737,192.245C175.737,189.496 177.965,187.268 180.714,187.268C183.464,187.268 185.692,189.496 185.692,192.245Z" style="fill:rgb(19,154,73);fill-rule:nonzero;"/>
                        </g>
                        <g transform="matrix(1,0,0,1,11.5355,13.5135)">
                            <path d="M200.907,197.223C200.907,199.972 198.678,202.2 195.929,202.2C193.18,202.2 190.951,199.972 190.951,197.223C190.951,194.474 193.18,192.245 195.929,192.245C198.678,192.245 200.907,194.474 200.907,197.223Z" style="fill:rgb(19,154,73);fill-rule:nonzero;"/>
                        </g>
                        <g transform="matrix(1,0,0,1,11.5355,13.5135)">
                            <path d="M217.192,201.294C217.192,204.044 214.964,206.272 212.214,206.272C209.465,206.272 207.237,204.044 207.237,201.294C207.237,198.545 209.465,196.317 212.214,196.317C214.964,196.317 217.192,198.545 217.192,201.294Z" style="fill:rgb(19,154,73);fill-rule:nonzero;"/>
                        </g>
                        <g transform="matrix(1,0,0,1,11.5355,13.5135)">
                            <path d="M234.978,203.437C234.978,206.186 232.75,208.415 230,208.415C227.251,208.415 225.022,206.186 225.022,203.437C225.022,200.688 227.251,198.46 230,198.46C232.75,198.46 234.978,200.688 234.978,203.437Z" style="fill:rgb(19,154,73);fill-rule:nonzero;"/>
                        </g>
                        <g transform="matrix(1,0,0,1,11.5355,13.5135)">
                            <path d="M306.237,187.268C306.237,190.017 308.466,192.245 311.215,192.245C313.964,192.245 316.192,190.017 316.192,187.268C316.192,184.518 313.964,182.29 311.215,182.29C308.466,182.29 306.237,184.518 306.237,187.268Z" style="fill:rgb(19,154,73);fill-rule:nonzero;"/>
                        </g>
                        <g transform="matrix(1,0,0,1,11.5355,13.5135)">
                            <path d="M291.237,192.245C291.237,194.994 293.466,197.223 296.215,197.223C298.964,197.223 301.192,194.994 301.192,192.245C301.192,189.496 298.964,187.268 296.215,187.268C293.466,187.268 291.237,189.496 291.237,192.245Z" style="fill:rgb(19,154,73);fill-rule:nonzero;"/>
                        </g>
                        <g transform="matrix(1,0,0,1,11.5355,13.5135)">
                            <path d="M276.022,197.223C276.022,199.972 278.251,202.2 281,202.2C283.749,202.2 285.978,199.972 285.978,197.223C285.978,194.474 283.749,192.245 281,192.245C278.251,192.245 276.022,194.474 276.022,197.223Z" style="fill:rgb(19,154,73);fill-rule:nonzero;"/>
                        </g>
                        <g transform="matrix(1,0,0,1,11.5355,13.5135)">
                            <path d="M259.737,201.294C259.737,204.044 261.966,206.272 264.715,206.272C267.464,206.272 269.692,204.044 269.692,201.294C269.692,198.545 267.464,196.317 264.715,196.317C261.966,196.317 259.737,198.545 259.737,201.294Z" style="fill:rgb(19,154,73);fill-rule:nonzero;"/>
                        </g>
                        <g transform="matrix(1,0,0,1,11.5355,13.5135)">
                            <path d="M241.951,203.437C241.951,206.186 244.18,208.415 246.929,208.415C249.678,208.415 251.906,206.186 251.906,203.437C251.906,200.688 249.678,198.46 246.929,198.46C244.18,198.46 241.951,200.688 241.951,203.437Z" style="fill:rgb(19,154,73);fill-rule:nonzero;"/>
                        </g>
                    </g>
                    <g transform="matrix(1,0,0,1,11.5355,13.5135)">
                        <path d="M49.214,117.325C75.814,138.125 92.914,134.225 106.515,111.125C110.814,149.125 92.014,175.825 67.814,200.325C78.114,169.025 65.314,142.925 49.214,117.325Z" style="fill:rgb(168,93,63);fill-rule:nonzero;"/>
                    </g>
                    <g transform="matrix(1,0,0,1,11.5355,13.5135)">
                        <path d="M371.515,114.025C385.814,138.425 404.715,136.925 427.715,118.925C411.915,145.425 398.415,171.125 410.015,202.225C380.915,176.725 364.215,138.325 371.515,114.025Z" style="fill:rgb(168,93,63);fill-rule:nonzero;"/>
                    </g>
                    <g transform="matrix(1,0,0,1,11.5355,13.5135)">
                        <path d="M401.314,121.925C391.915,121.925 384.015,114.125 384.114,104.925C384.314,95.925 392.114,88.325 401.215,88.325C410.715,88.325 418.314,95.925 418.215,105.325C418.314,114.525 410.715,121.925 401.314,121.925Z" style="fill:rgb(168,93,63);fill-rule:nonzero;"/>
                    </g>
                    <g transform="matrix(1,0,0,1,11.5355,13.5135)">
                        <path d="M92.614,103.925C92.414,113.225 84.814,120.825 75.714,120.625C66.314,120.425 58.814,112.625 59.014,103.125C59.214,93.825 66.714,86.626 76.214,86.825C85.614,87.025 92.714,94.425 92.614,103.925Z" style="fill:rgb(168,93,63);fill-rule:nonzero;"/>
                    </g>
                    <g transform="matrix(1,0,0,1,11.5355,13.5135)">
                        <path d="M312.551,0.025L241.498,37.126L255.799,37.126L255.799,67.514L284.765,67.514L284.765,98.513L255.799,98.513L255.799,165.991L312.551,135.825L312.551,0.025Z" style="fill:rgb(19,154,73);fill-rule:nonzero;"/>
                    </g>
                    <g transform="matrix(1,0,0,1,11.5355,13.5135)">
                        <path d="M190.65,98.513L190.65,67.514L219.616,67.514L219.616,37.126L235.377,37.126L164.55,0.025L164.55,137.125L219.616,165.819L219.616,98.513L190.65,98.513Z" style="fill:rgb(168,205,56);fill-rule:nonzero;"/>
                    </g>
                    <g transform="matrix(1,0,0,1,11.5355,13.5135)">
                        <path d="M238.05,38.925L241.498,37.126L235.377,37.126L238.05,38.525L238.05,38.925Z" style="fill:white;fill-rule:nonzero;"/>
                    </g>
                    <g transform="matrix(1,0,0,1,11.5355,13.5135)">
                        <path d="M255.799,67.514L255.799,37.126L241.498,37.126L238.05,38.925L238.05,38.525L235.377,37.126L219.616,37.126L219.616,67.514L190.65,67.514L190.65,98.513L219.616,98.513L219.616,165.819L237.904,175.349L238.193,175.349L255.799,165.991L255.799,98.513L284.765,98.513L284.765,67.514L255.799,67.514Z" style="fill:white;fill-rule:nonzero;"/>
                    </g>
                    <g transform="matrix(1,0,0,1,11.5355,13.5135)">
                        <path d="M237.708,37.126L233.937,37.126C233.937,37.126 227.128,46.273 226.518,50.948C226.518,50.948 224.18,47.289 227.839,41.089C227.839,41.089 213.376,51.528 225.816,80.93C225.816,80.93 223.072,82.252 216.466,67.921C216.466,67.921 214.738,100.546 225.613,115.079C225.613,115.079 225.003,118.026 222.666,115.079C222.666,115.079 224.393,127.885 233.744,133.882C233.744,133.882 234.354,140.692 230.796,133.882C230.796,133.882 230.39,148.619 235.675,154.615C235.675,154.615 241.874,147.196 238.622,136.728C238.622,136.728 238.724,123.921 240.757,124.125C240.757,124.125 258.237,113.25 255.697,106.847C255.697,106.847 248.48,114.571 240.858,117.315C240.858,117.315 258.847,100.85 260.778,85.504C260.778,85.504 266.422,57.252 243.094,49.932C243.094,49.932 253.359,64.669 240.858,88.553C240.757,88.553 219.525,56.386 237.708,37.126Z" style="fill:rgb(238,129,34);fill-rule:nonzero;"/>
                    </g>
                    <g transform="matrix(1,0,0,1,11.5355,13.5135)">
                        <path d="M142.45,23.273L154.879,26.701L154.879,144.558L208.879,171.558L142.45,160.415L142.45,23.273Z" style="fill:rgb(168,205,56);fill-rule:nonzero;"/>
                    </g>
                    <g transform="matrix(1,0,0,1,11.5355,13.5135)">
                        <path d="M121.879,46.415L133.021,46.415L133.021,168.986L192.165,179.7L121.879,179.7L121.879,46.415Z" style="fill:rgb(168,205,56);fill-rule:nonzero;"/>
                    </g>
                    <g transform="matrix(1,0,0,1,11.5355,13.5135)">
                        <path d="M334.479,23.273L322.05,26.701L322.05,144.558L268.05,171.558L334.479,160.415L334.479,23.273Z" style="fill:rgb(19,154,73);fill-rule:nonzero;"/>
                    </g>
                    <g transform="matrix(1,0,0,1,11.5355,13.5135)">
                        <path d="M355.05,46.415L343.907,46.415L343.907,168.986L284.765,179.7L355.05,179.7L355.05,46.415Z" style="fill:rgb(19,154,73);fill-rule:nonzero;"/>
                    </g>
                    <g transform="matrix(1,0,0,1,12.5845,14.7135)">
                        <path d="M243.058,29.54C243.058,31.818 241.211,33.665 238.933,33.665C236.654,33.665 234.808,31.818 234.808,29.54C234.808,27.262 236.654,25.415 238.933,25.415C241.211,25.415 243.058,27.262 243.058,29.54Z" style="fill:rgb(168,205,56);fill-rule:nonzero;"/>
                    </g>
                    <g transform="matrix(1,0,0,1,15.4465,14.5935)">
                        <path d="M268.504,16.754C268.504,19.033 266.657,20.879 264.379,20.879C262.101,20.879 260.254,19.033 260.254,16.754C260.254,14.476 262.101,12.629 264.379,12.629C266.657,12.629 268.504,14.476 268.504,16.754Z" style="fill:rgb(168,205,56);fill-rule:nonzero;"/>
                    </g>
                    <g transform="matrix(1,0,0,1,14.2295,16.7085)">
                        <path d="M245.058,17.754C245.058,20.033 243.211,21.879 240.933,21.879C238.654,21.879 236.808,20.033 236.808,17.754C236.808,15.476 238.654,13.629 240.933,13.629C243.211,13.629 245.058,15.476 245.058,17.754Z" style="fill:rgb(19,154,73);fill-rule:nonzero;"/>
                    </g>
                    <g transform="matrix(1,0,0,1,16.3355,19.0335)">
                        <path d="M249.183,7.469C249.183,9.747 247.336,11.594 245.058,11.594C242.779,11.594 240.933,9.747 240.933,7.469C240.933,5.191 242.779,3.344 245.058,3.344C247.336,3.344 249.183,5.191 249.183,7.469Z" style="fill:rgb(19,154,73);fill-rule:nonzero;"/>
                    </g>
                    <g transform="matrix(1,0,0,1,15.3755,15.9885)">
                        <path d="M260.325,9.504C260.325,11.783 258.479,13.629 256.2,13.629C253.922,13.629 252.075,11.783 252.075,9.504C252.075,7.226 253.922,5.379 256.2,5.379C258.479,5.379 260.325,7.226 260.325,9.504Z" style="fill:rgb(19,154,73);fill-rule:nonzero;"/>
                    </g>
                </g>
            </g>
        </g>
    </g>
</svg>
